<?xml version="1.0" encoding="utf-8"?>
<!-- Generator: Adobe Illustrator 22.1.0, SVG Export Plug-In . SVG Version: 6.00 Build 0)  -->
<svg version="1.1" id="Layer_1" xmlns="http://www.w3.org/2000/svg" xmlns:xlink="http://www.w3.org/1999/xlink" x="0px" y="0px"
	 viewBox="0 0 366 148.1" style="enable-background:new 0 0 366 148.1;" xml:space="preserve">
<style type="text/css">
	.st0{fill:#FFFFFF;}
</style>
<g>
	<g>
		<g>
			<path class="st0" d="M175.4,30.7c0.5-0.1,1-0.2,1.6-0.2c0.6-0.1,1.2-0.1,1.7-0.2s1.1-0.1,1.7-0.1c0.5,0,1,0,1.5,0
				c1.1,0,2.1,0.1,3.2,0.3c1,0.2,2,0.5,2.8,1c0.8,0.5,1.5,1.1,2,2c0.5,0.8,0.7,1.9,0.7,3.2c0,1.9-0.4,3.4-1.3,4.6
				c-0.9,1.2-2,2-3.5,2.5l1.6,1l5.2,8.7h-5.2l-5.2-9l-2.4-0.4v9.4h-4.5V30.7z M182.3,34.1c-0.5,0-0.9,0-1.4,0c-0.4,0-0.8,0.1-1,0.1
				v6.6h1.9c1.2,0,2.2-0.3,3-0.9c0.7-0.6,1.1-1.5,1.1-2.8c0-1-0.3-1.8-0.9-2.3C184.3,34.4,183.4,34.1,182.3,34.1z"/>
			<path class="st0" d="M193.3,41.9c0-3.8,0.8-6.8,2.5-8.8s4.1-3.1,7.2-3.1c1.6,0,3.1,0.3,4.3,0.9s2.2,1.4,3,2.4
				c0.8,1,1.4,2.3,1.8,3.8c0.4,1.5,0.6,3.1,0.6,4.9c0,3.8-0.8,6.8-2.5,8.8c-1.7,2.1-4.1,3.1-7.2,3.1c-1.7,0-3.1-0.3-4.3-0.9
				c-1.2-0.6-2.2-1.4-3-2.4c-0.8-1-1.4-2.3-1.8-3.8C193.5,45.3,193.3,43.7,193.3,41.9z M198,41.9c0,1.2,0.1,2.2,0.3,3.2
				c0.2,1,0.5,1.8,0.9,2.5c0.4,0.7,0.9,1.2,1.6,1.6s1.4,0.6,2.3,0.6c1.6,0,2.8-0.6,3.7-1.9c0.9-1.2,1.3-3.3,1.3-6.1
				c0-1.1-0.1-2.1-0.3-3.1c-0.2-1-0.5-1.8-0.9-2.5c-0.4-0.7-0.9-1.3-1.5-1.7S203.9,34,203,34c-1.6,0-2.8,0.6-3.7,1.9
				C198.4,37.2,198,39.2,198,41.9z"/>
			<path class="st0" d="M219.9,44.9l-7.5-14.4h5.3l4.2,8.6l0.5,2.4h0.2L223,39l4.1-8.5h4.8l-7.5,14.4v8.5h-4.5V44.9z"/>
			<path class="st0" d="M242.2,48.3h-7l-1.7,5.1h-4.5l8.2-23.1h3.3l8.2,23.1H244L242.2,48.3z M236.3,44.7h4.9l-1.7-5.1l-0.7-3.6
				h-0.2l-0.7,3.6L236.3,44.7z"/>
			<path class="st0" d="M265.2,53.4h-14.5V30.5h4.5v18.9h10V53.4z"/>
			<path class="st0" d="M175.4,63.2H189v4h-9.1v5.3h8.3v4h-8.3v5.6h9.3v4h-13.7V63.2z"/>
			<path class="st0" d="M208,85.2c-0.7,0.5-1.6,0.9-2.7,1.1c-1.1,0.2-2.2,0.3-3.3,0.3c-1.4,0-2.7-0.2-3.9-0.6
				c-1.2-0.4-2.3-1.1-3.3-2.1s-1.7-2.2-2.2-3.7s-0.8-3.4-0.8-5.5c0-2.2,0.3-4.1,0.9-5.6s1.4-2.7,2.4-3.7c1-0.9,2.1-1.6,3.3-2
				c1.2-0.4,2.4-0.6,3.7-0.6c1.3,0,2.4,0.1,3.3,0.3s1.7,0.4,2.2,0.6l-0.9,3.8c-0.5-0.2-1.1-0.4-1.8-0.5c-0.7-0.1-1.5-0.2-2.5-0.2
				c-1.8,0-3.3,0.6-4.4,1.9c-1.1,1.3-1.7,3.3-1.7,6c0,1.2,0.1,2.3,0.4,3.2c0.3,1,0.7,1.8,1.2,2.5c0.5,0.7,1.2,1.2,2,1.6
				c0.8,0.4,1.7,0.6,2.8,0.6c1,0,1.8-0.1,2.5-0.3c0.7-0.2,1.3-0.4,1.8-0.8L208,85.2z"/>
			<path class="st0" d="M209,74.7c0-3.8,0.8-6.8,2.5-8.8c1.7-2.1,4.1-3.1,7.2-3.1c1.6,0,3.1,0.3,4.3,0.9c1.2,0.6,2.2,1.4,3,2.4
				c0.8,1,1.4,2.3,1.8,3.8c0.4,1.5,0.6,3.1,0.6,4.9c0,3.8-0.8,6.8-2.5,8.8c-1.7,2.1-4.1,3.1-7.2,3.1c-1.7,0-3.1-0.3-4.3-0.9
				c-1.2-0.6-2.2-1.4-3-2.4c-0.8-1-1.4-2.3-1.8-3.8C209.2,78.1,209,76.4,209,74.7z M213.7,74.7c0,1.2,0.1,2.2,0.3,3.2
				c0.2,1,0.5,1.8,0.9,2.5c0.4,0.7,0.9,1.2,1.6,1.6s1.4,0.6,2.3,0.6c1.6,0,2.8-0.6,3.7-1.9c0.9-1.2,1.3-3.3,1.3-6.1
				c0-1.1-0.1-2.1-0.3-3.1c-0.2-1-0.5-1.8-0.9-2.5c-0.4-0.7-0.9-1.3-1.5-1.7s-1.4-0.6-2.3-0.6c-1.6,0-2.8,0.6-3.7,1.9
				C214.1,69.9,213.7,71.9,213.7,74.7z"/>
			<path class="st0" d="M237.3,74.2l-1.8-3.6h-0.2l0.5,3.6v11.9h-4.3V63h3.3l8.7,12.2l1.7,3.5h0.2l-0.5-3.5v-12h4.3v23.1h-3.3
				L237.3,74.2z"/>
			<path class="st0" d="M252.4,74.7c0-3.8,0.8-6.8,2.5-8.8c1.7-2.1,4.1-3.1,7.2-3.1c1.6,0,3.1,0.3,4.3,0.9c1.2,0.6,2.2,1.4,3,2.4
				c0.8,1,1.4,2.3,1.8,3.8c0.4,1.5,0.6,3.1,0.6,4.9c0,3.8-0.8,6.8-2.5,8.8c-1.7,2.1-4.1,3.1-7.2,3.1c-1.7,0-3.1-0.3-4.3-0.9
				c-1.2-0.6-2.2-1.4-3-2.4c-0.8-1-1.4-2.3-1.8-3.8C252.6,78.1,252.4,76.4,252.4,74.7z M257.1,74.7c0,1.2,0.1,2.2,0.3,3.2
				c0.2,1,0.5,1.8,0.9,2.5c0.4,0.7,0.9,1.2,1.6,1.6s1.4,0.6,2.3,0.6c1.6,0,2.8-0.6,3.7-1.9c0.9-1.2,1.3-3.3,1.3-6.1
				c0-1.1-0.1-2.1-0.3-3.1c-0.2-1-0.5-1.8-0.9-2.5c-0.4-0.7-0.9-1.3-1.5-1.7s-1.4-0.6-2.3-0.6c-1.6,0-2.8,0.6-3.7,1.9
				C257.5,69.9,257.1,71.9,257.1,74.7z"/>
			<path class="st0" d="M292.8,74.2l0.5-4.5h-0.2l-1.4,3.7l-4.9,8.5h-1.4l-5.1-8.6l-1.4-3.6h-0.2l0.7,4.5v11.9H275V63.2h4.1
				l6.1,10.5l1.1,2.6h0.1l1-2.7l5.8-10.4h4.1v22.9h-4.5V74.2z"/>
			<path class="st0" d="M301.7,63.2h4.5v22.9h-4.5V63.2z"/>
			<path class="st0" d="M326.1,85.2c-0.7,0.5-1.6,0.9-2.7,1.1c-1.1,0.2-2.2,0.3-3.3,0.3c-1.4,0-2.7-0.2-3.9-0.6
				c-1.2-0.4-2.3-1.1-3.3-2.1s-1.7-2.2-2.2-3.7s-0.8-3.4-0.8-5.5c0-2.2,0.3-4.1,0.9-5.6s1.4-2.7,2.4-3.7c1-0.9,2.1-1.6,3.3-2
				c1.2-0.4,2.4-0.6,3.7-0.6c1.3,0,2.4,0.1,3.3,0.3s1.7,0.4,2.2,0.6l-0.9,3.8c-0.5-0.2-1.1-0.4-1.8-0.5c-0.7-0.1-1.5-0.2-2.5-0.2
				c-1.8,0-3.3,0.6-4.4,1.9c-1.1,1.3-1.7,3.3-1.7,6c0,1.2,0.1,2.3,0.4,3.2c0.3,1,0.7,1.8,1.2,2.5c0.5,0.7,1.2,1.2,2,1.6
				c0.8,0.4,1.7,0.6,2.8,0.6c1,0,1.8-0.1,2.5-0.3c0.7-0.2,1.3-0.4,1.8-0.8L326.1,85.2z"/>
			<path class="st0" d="M185.3,112.7c0-0.7-0.3-1.3-0.8-1.7c-0.5-0.4-1.2-0.8-1.9-1.2c-0.8-0.4-1.6-0.7-2.5-1.1
				c-0.9-0.4-1.7-0.9-2.5-1.4s-1.4-1.2-1.9-2.1s-0.8-1.9-0.8-3.2c0-1.1,0.2-2.1,0.6-2.9s0.9-1.5,1.6-2c0.7-0.5,1.5-0.9,2.4-1.2
				s2-0.4,3.1-0.4c1.3,0,2.6,0.1,3.8,0.3c1.2,0.2,2.1,0.6,2.9,1l-1.4,3.8c-0.5-0.3-1.2-0.6-2.2-0.8c-1-0.3-2-0.4-3.1-0.4
				c-1,0-1.8,0.2-2.4,0.6c-0.6,0.4-0.8,1-0.8,1.7c0,0.7,0.3,1.2,0.8,1.6s1.2,0.8,1.9,1.2s1.6,0.8,2.5,1.1c0.9,0.4,1.7,0.9,2.5,1.4
				s1.4,1.2,1.9,2.1c0.5,0.8,0.8,1.8,0.8,3.1c0,1.2-0.2,2.3-0.6,3.2c-0.4,0.9-1,1.6-1.7,2.2c-0.7,0.6-1.6,1-2.7,1.3
				c-1,0.3-2.2,0.4-3.4,0.4c-1.6,0-3.1-0.2-4.3-0.5c-1.2-0.3-2.2-0.6-2.7-0.9l1.4-3.8c0.2,0.1,0.6,0.3,0.9,0.4
				c0.4,0.2,0.8,0.3,1.3,0.4c0.5,0.1,1,0.2,1.5,0.3c0.5,0.1,1.1,0.1,1.7,0.1c1.3,0,2.4-0.2,3.1-0.7S185.3,113.6,185.3,112.7z"/>
			<path class="st0" d="M192,107.4c0-3.8,0.8-6.8,2.5-8.8s4.1-3.1,7.2-3.1c1.6,0,3.1,0.3,4.3,0.9s2.2,1.4,3,2.4
				c0.8,1,1.4,2.3,1.8,3.8c0.4,1.5,0.6,3.1,0.6,4.9c0,3.8-0.8,6.8-2.5,8.8c-1.7,2.1-4.1,3.1-7.2,3.1c-1.7,0-3.1-0.3-4.3-0.9
				c-1.2-0.6-2.2-1.4-3-2.4c-0.8-1-1.4-2.3-1.8-3.8C192.2,110.8,192,109.2,192,107.4z M196.7,107.4c0,1.2,0.1,2.2,0.3,3.2
				c0.2,1,0.5,1.8,0.9,2.5c0.4,0.7,0.9,1.2,1.6,1.6s1.4,0.6,2.3,0.6c1.6,0,2.8-0.6,3.7-1.9c0.9-1.2,1.3-3.3,1.3-6.1
				c0-1.1-0.1-2.1-0.3-3.1c-0.2-1-0.5-1.8-0.9-2.5c-0.4-0.7-0.9-1.3-1.5-1.7s-1.4-0.6-2.3-0.6c-1.6,0-2.8,0.6-3.7,1.9
				C197.2,102.7,196.7,104.7,196.7,107.4z"/>
			<path class="st0" d="M230.2,117.9c-0.7,0.5-1.6,0.9-2.7,1.1c-1.1,0.2-2.2,0.3-3.3,0.3c-1.4,0-2.7-0.2-3.9-0.6
				c-1.2-0.4-2.3-1.1-3.3-2.1s-1.7-2.2-2.2-3.7s-0.8-3.4-0.8-5.5c0-2.2,0.3-4.1,0.9-5.6s1.4-2.7,2.4-3.7c1-0.9,2.1-1.6,3.3-2
				c1.2-0.4,2.4-0.6,3.7-0.6c1.3,0,2.4,0.1,3.3,0.3s1.7,0.4,2.2,0.6l-0.9,3.8c-0.5-0.2-1.1-0.4-1.8-0.5c-0.7-0.1-1.5-0.2-2.5-0.2
				c-1.8,0-3.3,0.6-4.4,1.9c-1.1,1.3-1.7,3.3-1.7,6c0,1.2,0.1,2.3,0.4,3.2c0.3,1,0.7,1.8,1.2,2.5c0.5,0.7,1.2,1.2,2,1.6
				c0.8,0.4,1.7,0.6,2.8,0.6c1,0,1.8-0.1,2.5-0.3c0.7-0.2,1.3-0.4,1.8-0.8L230.2,117.9z"/>
			<path class="st0" d="M233.4,95.9h4.5v22.9h-4.5V95.9z"/>
			<path class="st0" d="M242.3,95.9h13.6v4h-9.1v5.3h8.3v4h-8.3v5.6h9.3v4h-13.7V95.9z"/>
			<path class="st0" d="M275.6,99.9H269v18.9h-4.5V99.9h-6.7v-4h17.9V99.9z"/>
			<path class="st0" d="M281.2,110.3l-7.5-14.4h5.3l4.2,8.6l0.5,2.4h0.2l0.5-2.5l4.1-8.5h4.8l-7.5,14.4v8.5h-4.5V110.3z"/>
		</g>
	</g>
</g>
<path class="st0" d="M156.6,57.2c-1.3-3.6-4.9-5.3-10.8-5.3c-8.4,0-20.8,3.3-38.8,8.3c-0.3-1.1-0.8-2.2-1.5-3.2l7.5-4.8
	c0.3-0.2,0.3-0.5,0.1-0.8l0,0l2.7-5.5c0.2-0.3,0-0.7-0.3-0.8l-1.4-0.5c-0.3-0.1-0.7,0.1-0.7,0.4l-1.3,5.5c-0.1,0-0.3,0-0.4,0.1
	l-6.8,5.6c-0.4-0.5-0.9-1-1.4-1.4c1.5-2.5,1.1-4.6,0.4-5.9c-0.8-1.5-2.2-2.7-3.9-3.6c1.1-5.5,7.1-10.8,7.1-10.9
	c0.3-0.3,0.4-0.8,0.1-1.2c-0.3-0.3-0.8-0.4-1.2-0.1c-0.3,0.2-6.2,5.5-7.6,11.4c-1.3-0.5-2.7-0.8-3.9-0.8c-1.3,0-2.8,0.3-4.3,1
	c-1.3-6-7.4-11.4-7.6-11.6c-0.3-0.3-0.9-0.3-1.2,0.1c-0.3,0.3-0.3,0.9,0.1,1.2c0.1,0.1,6.1,5.4,7.1,10.9c0,0.1,0,0.1,0.1,0.2
	c-1.5,0.9-2.8,2-3.6,3.4c-0.7,1.3-1.2,3.4,0.4,6c-0.5,0.4-0.9,0.8-1.3,1.2l-6.8-5.5c-0.1-0.1-0.2-0.1-0.4-0.1L75.6,45
	c-0.1-0.3-0.4-0.5-0.7-0.4l-1.4,0.5c-0.3,0.1-0.5,0.5-0.3,0.8l2.7,5.5l0,0c-0.2,0.2-0.2,0.6,0.1,0.8l7.5,4.8c-0.7,1-1.3,2-1.6,3.3
	c-18.1-5.1-30.7-8.4-39.1-8.4c-5.9,0-9.5,1.7-10.8,5.3c-0.7,1.8-0.5,3.5,0.5,5.2c2.5,4.2,9.4,6.9,12.1,7.4c4.3,2.4,8.6,3.4,12.5,3.4
	c10.5,0,19.4-6.6,24.3-10.6c-0.1,3.1,1.3,5.9,4,7.7c-0.5,0.1-1,0.4-1.5,0.6l0.1-0.1c0,0-3.6-0.6-5.1,1c-0.1,0-0.1,0-0.2,0.1l-5,3.7
	c-0.3,0.2-0.3,0.6-0.1,0.8l0.1,0.1l-6.7,9.7c-0.2,0.2-0.1,0.5,0.1,0.7l0.6,0.7c0.3,0.3,0.7,0.2,0.9-0.1l6.6-9.7
	c0.1,0,0.2-0.1,0.3-0.1l4.6-4.2l0.8,0.4c-0.6,1.1-1.1,2.3-1.4,3.8c0,0,0,0.1,0,0.1c-1,0.2-3.3,0.9-3.2,3.2l-3,15.6
	c0,0.2,0,0.4,0.2,0.6c-0.1,0.1-0.2,0.2-0.2,0.3L69.7,109c-0.1,0.3,0,0.5,0.3,0.7l0.8,0.4c0.3,0.2,0.7,0,0.8-0.3l3.3-11.5
	c0.3,0,0.5-0.2,0.5-0.5l3-16.3l0.4,0.1c-0.2,4.8,0.9,10.6,3.1,16.1c3,7.5,7.5,13.1,12.3,15.3l0.2,0.1h0.7l0.2-0.1
	c8.3-3.7,14.2-16.9,14.7-27.8c0.1-1.2,0.1-2.5,0-3.6l0.3,0l3,16.3c0.1,0.3,0.3,0.5,0.5,0.5l3.3,11.5c0.1,0.4,0.5,0.5,0.8,0.3
	l0.8-0.4c0.2-0.1,0.4-0.4,0.3-0.7l-3.4-11.4c0-0.1-0.1-0.2-0.2-0.3c0.2-0.1,0.3-0.4,0.2-0.6l-3-15.6c0.1-2.2-2-3-3.1-3.2
	c0-0.1,0-0.1,0-0.2c-0.3-1.4-0.7-2.7-1.3-3.7l0.9-0.4l4.6,4.2c0.1,0.1,0.2,0.1,0.3,0.1l6.6,9.7c0.2,0.3,0.6,0.3,0.9,0.1l0.6-0.7
	c0.2-0.2,0.2-0.5,0.1-0.7l-6.7-9.7l0.1-0.1c0.2-0.3,0.1-0.6-0.1-0.8l-5-3.7c-0.1,0-0.1-0.1-0.2-0.1c-1.2-1.4-3.9-1.2-4.8-1
	c-0.7-0.5-1.4-0.8-2.2-1c1.4-1,2.5-2.3,3.2-3.7c0.6-1.4,0.7-2.1,0.7-2.1l0-0.1c0.1-0.3,0.1-0.7,0.1-1c5,4,13.8,10.5,24.1,10.5
	c4,0,8.2-1,12.5-3.4c2.7-0.5,9.6-3.2,12.1-7.4C157.1,60.8,157.3,59,156.6,57.2z M73.7,62.7c-2.8,0.3-4.9,0.5-8.1,1.2
	c-7.5,1.6-15.2,4-18.6,5.1c-1.4-1.5,7.2-4.1,13.2-5.6c0.9-0.2,1.8-0.4,2.5-0.6c5-1.1,16.1-1.8,16.5-0.7C77,62.4,75.2,62.6,73.7,62.7
	z M94.8,111.2c-3.7-1.7-7-5.6-9.4-10.3c1.6,0.3,5.5,1,9.4,1c3.8,0,7.5-0.7,9.2-1C101.7,105.6,98.5,109.5,94.8,111.2z M105.8,96.9
	c-2.3,0.2-7.1,0.5-11,0.5c-5.2,0-5.3,0-11.3-0.5c-0.8-2-1.4-4-1.9-6.1c2.1,0.1,8.6,0.5,13.3,0.5c4.5,0,10.4-0.3,12.8-0.5
	C107.2,92.8,106.6,94.9,105.8,96.9z M108.4,81.4c0.1,1.3,0.1,2.6,0,4c-2.1,0.1-8.5,0.4-13.6,0.4c-5.2,0-12.1-0.3-14.2-0.4
	c-0.1-1.4-0.2-2.7-0.1-4c2.2,0,8.9,0.1,14.3,0.1C100.2,81.5,106.3,81.4,108.4,81.4z M105.6,63.5c0,0-0.1,0.8-0.6,1.9
	c-0.5,1.2-2.5,3.2-4.7,4.1l-0.5,0.2c-2.6,0.9-6.9,0.9-9.3,0.6c-1.4-0.2-2.3-0.4-2.9-0.6c-3.3-1.6-5-4.6-4.5-8l0.2-1.1
	c0.3-1.2,0.9-2.2,1.6-3.1c0.1-0.1,0.1-0.1,0.2-0.2c1.8-2.1,4.4-3.3,7.1-3.8c0.6-0.1,1.3-0.1,2.1-0.1c1,0,1.8,0.1,2.5,0.2
	c2.9,0.5,5.3,1.9,7,3.9c0.8,0.9,1.3,2,1.6,3.1l0.2,1.2C105.7,62.4,105.7,63,105.6,63.5z M142.3,68.7c-3.4-1.1-11.1-3.4-18.6-5.1
	c-3.1-0.7-5.3-0.9-8.1-1.2c-1.6-0.2-3.3-0.3-5.4-0.6c0.4-1.2,11.4-0.5,16.5,0.7c0.7,0.2,1.6,0.4,2.5,0.6
	C135.1,64.5,143.7,67.1,142.3,68.7z"/>
</svg>
