<?xml version="1.0" encoding="UTF-8"?>
<!-- Generator: Adobe Illustrator 22.1.0, SVG Export Plug-In . SVG Version: 6.00 Build 0)  -->
<svg version="1.1" id="Layer_1" xmlns="http://www.w3.org/2000/svg" xmlns:xlink="http://www.w3.org/1999/xlink" x="0px" y="0px" viewBox="0 0 293.5 89.3" style="enable-background:new 0 0 293.5 89.3;" xml:space="preserve">
<style type="text/css">
	.st0{fill:url(#SVGID_1_);}
	.st1{fill:#1D1D1B;}
</style>
<title>Logo-colour-screen</title>
<linearGradient id="SVGID_1_" gradientUnits="userSpaceOnUse" x1="-204.82" y1="328.1151" x2="-174.2175" y2="328.1151" gradientTransform="matrix(0.9659 -0.2588 -0.2588 -0.9659 331.4552 326.4052)">
	<stop offset="0" style="stop-color:#FABA34"/>
	<stop offset="1" style="stop-color:#FCC864"/>
</linearGradient>
<path class="st0" d="M76.1,46.7c2.5,9.3-3,31.2-12,31.4c-6.3,0.1-12.8-2.4-15.5-15.8c-1.9-9.4-2.2-19.1,3.9-20.7  S73.7,37.4,76.1,46.7z"/>
<path class="st1" d="M0.9,32.5c2.5,4.2,9.4,6.9,12,7.3c3.8,2.2,8.1,3.3,12.5,3.4c10.2,0,19-6.4,24-10.4c0,0.3,0,0.7,0.1,1v0.1  l0.7,2.1c0.7,1.5,1.8,2.7,3.2,3.7c-0.8,0.2-1.5,0.6-2.2,1c-0.9-0.1-3.5-0.3-4.7,1l-0.2,0.1l-5,3.7c-0.3,0.2-0.3,0.5-0.1,0.8  c0,0,0,0,0,0l0.1,0.1l-6.7,9.7c-0.2,0.2-0.2,0.5,0,0.7l0.6,0.7c0.2,0.2,0.6,0.2,0.8,0c0,0,0.1-0.1,0.1-0.1l6.5-9.6  c0.1,0,0.2-0.1,0.3-0.1l4.7-4.1l0.9,0.4c-0.6,1.2-1,2.4-1.3,3.7c0,0.1,0,0.1,0,0.2c-1,0.2-3.2,0.9-3.1,3.1l0,0l-3,15.5  c0,0.2,0.1,0.5,0.2,0.6c-0.1,0.1-0.2,0.2-0.2,0.3l-3.3,11.3c-0.1,0.3,0,0.5,0.3,0.7l0.8,0.4c0.3,0.2,0.6,0.1,0.8-0.2  c0,0,0-0.1,0.1-0.1L42.8,68c0.3,0,0.5-0.2,0.5-0.5l2.9-16.2h0.3c-0.1,5.5,0.8,10.9,2.8,16.1c2.8,7.5,7.1,13,11.8,15.1l0.2,0.1H62  l0.2-0.1c4.8-2.1,9.3-7.6,12.3-15.1c2.1-5.1,3.1-10.5,3.1-15.9l0.5-0.1L81,67.5c0,0.2,0.2,0.4,0.5,0.5l3.2,11.4  c0.1,0.3,0.4,0.5,0.7,0.4c0,0,0.1,0,0.1,0l0.8-0.4c0.2-0.1,0.3-0.4,0.3-0.7l-3.3-11.3c0-0.1-0.1-0.2-0.2-0.3  c0.2-0.1,0.3-0.4,0.2-0.6l-3-15.5l0,0c0.2-2.3-2.2-3-3.2-3.2v-0.2c-0.3-1.3-0.7-2.6-1.4-3.7l0.8-0.4l4.6,4.1  c0.1,0.1,0.2,0.1,0.3,0.1l6.5,9.6c0.2,0.3,0.5,0.3,0.8,0.2c0,0,0.1-0.1,0.1-0.1l0.6-0.7c0.2-0.2,0.2-0.5,0-0.7l-6.7-9.6l0.1-0.1  c0.2-0.2,0.2-0.6-0.1-0.8c0,0,0,0,0,0l-5-3.7l-0.2-0.1c-1.4-1.6-5-1-5-1l0.1,0.1c-0.5-0.3-1-0.5-1.5-0.6c2.6-1.7,4.1-4.6,3.9-7.7  c5,4,13.8,10.6,24.2,10.6c4.4,0,8.7-1.2,12.4-3.4c2.7-0.5,9.6-3.2,12-7.3c1-1.6,1.2-3.5,0.5-5.2c-1.3-3.6-4.8-5.3-10.7-5.3  c-8.4,0-20.8,3.3-38.8,8.3c-0.3-1.2-0.9-2.3-1.6-3.2l7.4-4.7c0.2-0.1,0.3-0.5,0.1-0.7c0,0,0-0.1-0.1-0.1l0,0l2.7-5.5  c0.1-0.3,0-0.6-0.2-0.8c0,0-0.1,0-0.1,0l-1.4-0.5c-0.3-0.1-0.6,0.1-0.7,0.4c0,0,0,0,0,0l-1.3,5.4c-0.1,0-0.3,0-0.4,0.1l-6.7,5.5  c-0.4-0.4-0.8-0.8-1.3-1.2c1.3-1.7,1.4-4,0.4-5.9c-0.8-1.4-2.1-2.6-3.5-3.4c0,0,0-0.1,0.1-0.2c1-5.5,7-10.8,7.1-10.9  c0.3-0.3,0.4-0.8,0.1-1.2c0,0,0,0,0,0c-0.3-0.3-0.8-0.4-1.1-0.1c0,0,0,0,0,0c-0.3,0.2-6.3,5.6-7.6,11.5c-1.3-0.6-2.8-0.9-4.3-0.9  c-1.3,0-2.6,0.3-3.9,0.8C57,8.8,51,3.6,50.8,3.4c-0.3-0.3-0.8-0.3-1.2,0s-0.3,0.8,0,1.2c0,0,0,0,0.1,0.1c0.1,0,6,5.3,7.1,10.8  c-1.6,0.8-2.9,2-3.8,3.6c-1,1.9-0.9,4.1,0.3,5.8c-0.5,0.4-1,0.9-1.4,1.4l-6.8-5.5c-0.1-0.1-0.2-0.1-0.4-0.1l-1.2-5.5  c-0.1-0.3-0.4-0.5-0.7-0.4c0,0,0,0,0,0l-1.4,0.5c-0.3,0.1-0.5,0.4-0.4,0.7c0,0,0,0,0,0.1l2.7,5.5l0,0c-0.2,0.2-0.2,0.5,0,0.7  c0,0,0.1,0,0.1,0.1l7.4,4.8c-0.7,0.9-1.2,2-1.5,3.1C31.8,25.2,19.5,22,11.1,22c-5.9,0-9.4,1.7-10.7,5.3C-0.3,29-0.1,30.9,0.9,32.5z   M52.7,70.9c-0.7-1.3-1.3-2.6-1.9-4c2.3,0.2,7,0.4,10.9,0.4c3.7,0.1,7.3-0.1,11-0.5c-0.6,1.4-1.2,2.7-1.9,4.1c-3,0.6-6.1,0.9-9.1,1  C58.7,71.9,55.7,71.5,52.7,70.9z M49,60.8c-0.4-1.8-0.7-3.5-0.8-5.3c2,0.1,8.5,0.4,13.6,0.4s11.8-0.3,14-0.4c-0.2,1.8-0.5,3.6-1,5.3  c-2.2,0.1-8.5,0.5-13,0.5S51.2,61,49,60.8z M48.1,51.5c0.1-1.2,0.2-2.3,0.5-3.5c0.3-1.7,1-3.2,1.9-4.6c2.1,0.1,7.2,0.3,11.3,0.3  s9.1-0.2,11.4-0.3c1.1,1.3,1.9,2.9,2.1,4.6c0.2,1.1,0.4,2.3,0.4,3.5c-2.3,0-8.8,0.1-14.1,0.1S50.1,51.5,48.1,51.5z M64.6,22.1  c-0.7-0.1-1.3-0.2-2-0.2h-0.4h-0.4c-0.9,0-1.8,0.2-2.7,0.3c-1.4,0.3-2.8,0.7-4.2,1.3l-0.4,0.2c-0.7-1.2-0.8-2.7-0.1-3.9  c1.3-2.5,5.2-4.2,7.8-4.2c2.6,0,6.5,1.7,7.8,4.2c0.6,1.2,0.6,2.7-0.1,3.9l-0.4-0.2C68,22.8,66.3,22.3,64.6,22.1z M111.4,38.2  c-1.5-0.5-11-3.6-20.3-5.6c-2.7-0.6-5.4-1-8.2-1.2c-1.3-0.1-2.7-0.3-4.4-0.5c16-4.4,27.3-7.3,34.9-7.3c5.2,0,8.1,1.3,9.2,4.2  c0.5,1.3,0.3,2.7-0.4,3.8C120.2,35.3,113.9,37.7,111.4,38.2z M77.4,32.4c2.1,0.3,3.8,0.5,5.4,0.6c2.7,0.2,5.4,0.6,8,1.2  c7.4,1.6,15,3.9,18.5,5C96.1,45.5,84.4,37.8,77.4,32.4z M15.3,39.2c3.4-1.1,11-3.4,18.5-5c2.6-0.6,5.3-1,8-1.2  c1.6-0.2,3.3-0.3,5.4-0.6C40.3,37.8,28.5,45.5,15.3,39.2z M1.9,27.8c1.1-2.9,4-4.2,9.2-4.2c7.6,0,18.9,2.8,34.9,7.3  c-1.7,0.2-3.1,0.3-4.4,0.5c-2.7,0.2-5.5,0.6-8.2,1.2c-9.3,2-18.8,5.1-20.3,5.6c-2.4-0.4-8.7-2.9-10.8-6.5  C1.6,30.5,1.5,29.1,1.9,27.8z"/>
<path class="st1" d="M142.8,0.7c0.5-0.1,1.1-0.2,1.6-0.2s1.2-0.1,1.7-0.2s1.1-0.1,1.7-0.1h1.5c1.1,0,2.1,0.1,3.2,0.3  c1,0.2,1.9,0.5,2.8,1c0.8,0.5,1.5,1.2,2,2c0.5,1,0.8,2.1,0.7,3.2c0.1,1.6-0.4,3.2-1.3,4.6c-0.9,1.2-2.1,2-3.5,2.5l1.6,1l5.2,8.7  h-5.2l-5.2-9l-2.4-0.4v9.4h-4.5L142.8,0.7z M149.7,4.1c-0.5,0-0.9,0-1.4,0c-0.3,0-0.7,0.1-1,0.1v6.7h1.9c1.1,0.1,2.1-0.2,3-0.8  c0.8-0.7,1.2-1.8,1.1-2.8c0-0.9-0.3-1.7-0.9-2.3C151.7,4.3,150.7,4,149.7,4.1L149.7,4.1z"/>
<path class="st1" d="M160.7,11.9c0-3.8,0.8-6.8,2.5-8.8c1.8-2.1,4.4-3.3,7.2-3.1c1.5,0,2.9,0.3,4.3,0.9c1.2,0.6,2.2,1.4,3,2.4  c0.8,1.1,1.5,2.4,1.8,3.8c0.4,1.6,0.6,3.2,0.6,4.9c0,3.8-0.8,6.8-2.5,8.8c-1.8,2.1-4.4,3.2-7.1,3.1c-1.5,0-3-0.3-4.3-0.8  c-1.2-0.5-2.2-1.4-3-2.4c-0.8-1.1-1.4-2.4-1.8-3.8C160.9,15.2,160.7,13.6,160.7,11.9z M165.4,11.9c0,1.1,0.1,2.1,0.3,3.2  c0.2,0.9,0.5,1.7,0.9,2.5c0.4,0.7,0.9,1.2,1.6,1.6c0.7,0.4,1.5,0.6,2.3,0.6c1.5,0.1,2.9-0.6,3.7-1.9c0.9-1.2,1.3-3.3,1.3-6.1  c0-1-0.1-2.1-0.3-3.1c-0.2-0.9-0.5-1.7-0.9-2.5c-0.4-0.7-0.9-1.3-1.5-1.7c-0.7-0.4-1.5-0.6-2.3-0.6c-1.5-0.1-2.9,0.7-3.7,1.9  C165.9,7.2,165.4,9.2,165.4,11.9z"/>
<path class="st1" d="M187.3,14.9l-7.5-14.4h5.3l4.2,8.6l0.5,2.4h0.2l0.5-2.5l4-8.5h4.8l-7.5,14.4v8.5h-4.5L187.3,14.9z"/>
<path class="st1" d="M209.6,18.3h-7l-1.7,5.1h-4.5l8.2-23.1h3.3l8.2,23.1h-4.7L209.6,18.3z M203.7,14.7h4.9l-1.7-5.1L206.2,6h-0.2  l-0.7,3.6L203.7,14.7z"/>
<path class="st1" d="M232.6,23.4h-14.5V0.5h4.5v18.9h10L232.6,23.4z"/>
<path class="st1" d="M142.8,33.2h13.6v4h-9.1v5.3h8.3v4h-8.3v5.6h9.3v4h-13.8V33.2z"/>
<path class="st1" d="M175.4,55.2c-0.8,0.5-1.7,0.9-2.7,1.1c-1.1,0.2-2.2,0.3-3.3,0.3c-1.3,0-2.7-0.2-3.9-0.6  c-1.2-0.4-2.3-1.1-3.2-2.1c-1-1.1-1.8-2.3-2.2-3.7c-0.6-1.8-0.9-3.6-0.8-5.5c-0.1-1.9,0.3-3.8,0.9-5.6c0.5-1.4,1.4-2.6,2.4-3.7  c1-0.9,2.1-1.6,3.3-2c1.2-0.4,2.4-0.6,3.7-0.6c1.1,0,2.2,0.1,3.3,0.3c0.8,0.1,1.5,0.3,2.2,0.6l-0.9,3.8c-0.6-0.3-1.2-0.4-1.8-0.5  c-0.8-0.1-1.7-0.2-2.5-0.2c-1.7-0.1-3.3,0.7-4.4,1.9c-1.1,1.3-1.7,3.3-1.7,6c0,1.1,0.1,2.2,0.4,3.2c0.2,0.9,0.6,1.7,1.2,2.5  c0.5,0.7,1.2,1.2,2,1.6c0.9,0.4,1.8,0.6,2.8,0.6c0.8,0,1.7-0.1,2.5-0.3c0.6-0.2,1.2-0.4,1.8-0.8L175.4,55.2z"/>
<path class="st1" d="M176.4,44.6c0-3.8,0.8-6.8,2.5-8.8c1.8-2.1,4.4-3.3,7.2-3.1c1.5,0,2.9,0.3,4.3,0.8c1.2,0.5,2.2,1.4,3,2.4  c0.8,1.1,1.5,2.4,1.8,3.8c0.4,1.6,0.6,3.2,0.6,4.9c0,3.8-0.8,6.8-2.5,8.8c-1.8,2.1-4.4,3.2-7.2,3.1c-1.5,0-3-0.3-4.3-0.9  c-1.2-0.5-2.2-1.4-3-2.4c-0.8-1.1-1.4-2.4-1.8-3.8C176.6,47.9,176.4,46.3,176.4,44.6z M181.2,44.6c0,1.1,0.1,2.1,0.3,3.2  c0.2,0.9,0.5,1.7,0.9,2.5c0.4,0.7,0.9,1.2,1.5,1.6c0.7,0.4,1.5,0.6,2.3,0.6c1.5,0.1,2.9-0.6,3.7-1.9c0.9-1.2,1.3-3.3,1.3-6.1  c0-1-0.1-2.1-0.3-3.1c-0.2-0.9-0.5-1.7-0.9-2.5c-0.4-0.7-0.9-1.3-1.5-1.7c-2-1.2-4.6-0.6-6,1.3C181.6,39.9,181.1,41.9,181.2,44.6  L181.2,44.6z"/>
<path class="st1" d="M204.8,44.2l-1.8-3.6h-0.2l0.5,3.6v12h-4.3V33h3.3l8.7,12.2l1.7,3.5h0.2l-0.5-3.5v-12h4.2v23.1h-3.3L204.8,44.2  z"/>
<path class="st1" d="M219.8,44.6c0-3.8,0.8-6.8,2.5-8.8c1.8-2.1,4.4-3.3,7.2-3.1c1.5,0,2.9,0.3,4.3,0.8c1.2,0.6,2.2,1.4,3,2.4  c0.8,1.1,1.5,2.4,1.8,3.8c0.4,1.6,0.6,3.2,0.6,4.9c0,3.8-0.8,6.8-2.5,8.8c-1.8,2.1-4.4,3.3-7.2,3.1c-1.5,0-3-0.3-4.3-0.9  c-1.2-0.5-2.2-1.4-3-2.4c-0.8-1.1-1.4-2.4-1.8-3.8C220,47.9,219.8,46.3,219.8,44.6z M224.6,44.6c0,1.1,0.1,2.1,0.3,3.2  c0.2,0.9,0.5,1.7,0.9,2.5c0.4,0.7,0.9,1.2,1.6,1.6c0.7,0.4,1.5,0.6,2.3,0.6c1.5,0.1,2.9-0.6,3.7-1.9c0.9-1.2,1.3-3.3,1.3-6.1  c0-1-0.1-2.1-0.3-3.1c-0.2-0.9-0.4-1.8-0.9-2.6c-0.4-0.7-0.9-1.3-1.5-1.7c-0.7-0.4-1.5-0.6-2.3-0.6c-1.5-0.1-2.9,0.7-3.7,1.9  C225,39.9,224.6,41.9,224.6,44.6z"/>
<path class="st1" d="M260.3,44.2l0.5-4.6h-0.2l-1.4,3.7l-4.9,8.5h-1.4l-5.1-8.6l-1.4-3.6h-0.2l0.6,4.5v11.9h-4.2V33.2h4.1l6.1,10.5  l1.1,2.6h0.1l1-2.7l5.8-10.4h4v22.9h-4.5L260.3,44.2z"/>
<path class="st1" d="M269.1,33.2h4.5v22.9h-4.5V33.2z"/>
<path class="st1" d="M293.5,55.2c-0.8,0.5-1.7,0.9-2.7,1.1c-1.1,0.2-2.2,0.3-3.3,0.3c-1.3,0-2.7-0.2-3.9-0.6  c-1.2-0.4-2.3-1.1-3.2-2.1c-1-1.1-1.8-2.3-2.2-3.7c-0.6-1.8-0.9-3.6-0.8-5.5c-0.1-1.9,0.3-3.8,0.9-5.6c0.5-1.4,1.4-2.6,2.4-3.7  c1-0.9,2.1-1.6,3.3-2c1.2-0.4,2.4-0.6,3.7-0.6c1.1,0,2.2,0.1,3.3,0.3c0.8,0.1,1.5,0.3,2.2,0.6l-0.9,3.8c-0.6-0.3-1.2-0.4-1.8-0.5  c-0.8-0.1-1.7-0.2-2.5-0.2c-1.7-0.1-3.3,0.7-4.4,1.9c-1.1,1.3-1.6,3.3-1.6,6c0,1.1,0.1,2.2,0.4,3.2c0.2,0.9,0.6,1.7,1.2,2.5  c0.5,0.7,1.2,1.2,2,1.6c0.9,0.4,1.8,0.6,2.8,0.6c0.8,0,1.7-0.1,2.5-0.3c0.6-0.2,1.2-0.4,1.8-0.8L293.5,55.2z"/>
<path class="st1" d="M152.7,82.7c0-0.7-0.3-1.3-0.8-1.7c-0.6-0.5-1.2-0.9-1.9-1.2c-0.8-0.4-1.6-0.7-2.5-1.1  c-0.9-0.4-1.7-0.8-2.5-1.4c-0.8-0.6-1.4-1.3-1.9-2.1c-0.5-1-0.8-2.1-0.8-3.2c0-1,0.2-2,0.6-2.9c0.4-0.8,0.9-1.5,1.6-2  c0.7-0.6,1.6-1,2.4-1.2c1-0.3,2.1-0.4,3.1-0.4c1.3,0,2.5,0.1,3.8,0.3c1,0.2,2,0.5,2.9,1l-1.4,3.8c-0.7-0.4-1.4-0.7-2.2-0.8  c-1-0.3-2.1-0.4-3.1-0.4c-0.8-0.1-1.7,0.2-2.4,0.6c-0.5,0.4-0.9,1-0.8,1.7c0,0.6,0.3,1.2,0.8,1.6c0.6,0.5,1.2,0.9,1.9,1.2  c0.8,0.4,1.6,0.8,2.5,1.2c0.9,0.4,1.7,0.9,2.5,1.4c0.8,0.6,1.4,1.3,1.9,2.1c0.5,0.9,0.8,2,0.8,3.1c0,1.1-0.2,2.2-0.6,3.2  c-0.4,0.9-1,1.6-1.7,2.2c-0.8,0.6-1.7,1.1-2.7,1.3c-1.1,0.3-2.3,0.4-3.4,0.4c-1.5,0-2.9-0.1-4.3-0.4c-0.9-0.2-1.9-0.5-2.8-0.9  l1.4-3.8c0.3,0.2,0.6,0.3,0.9,0.4c0.4,0.2,0.9,0.3,1.3,0.4c0.5,0.1,1,0.2,1.5,0.3c0.5,0.1,1.1,0.1,1.7,0.1c1.1,0.1,2.1-0.2,3.1-0.7  C152.4,84.3,152.8,83.5,152.7,82.7z"/>
<path class="st1" d="M159.4,77.4c0-3.8,0.8-6.8,2.5-8.8c1.8-2.1,4.4-3.3,7.2-3.1c1.5,0,2.9,0.3,4.3,0.8c1.2,0.6,2.2,1.4,3,2.4  c0.8,1.1,1.5,2.4,1.8,3.8c0.4,1.6,0.6,3.2,0.6,4.9c0,3.8-0.8,6.8-2.5,8.8c-1.8,2.1-4.4,3.2-7.2,3.1c-1.5,0-3-0.3-4.3-0.8  c-1.2-0.5-2.2-1.4-3-2.4c-0.8-1.1-1.4-2.4-1.8-3.8C159.6,80.7,159.4,79,159.4,77.4z M164.2,77.4c0,1.1,0.1,2.1,0.3,3.2  c0.2,0.9,0.5,1.7,0.9,2.5c0.4,0.7,0.9,1.2,1.6,1.6c0.7,0.4,1.5,0.6,2.3,0.6c1.5,0.1,2.9-0.6,3.7-1.9c0.9-1.2,1.3-3.3,1.3-6.1  c0-1-0.1-2.1-0.3-3.1c-0.2-0.9-0.4-1.7-0.9-2.5c-0.4-0.7-0.9-1.3-1.5-1.7c-2-1.2-4.6-0.6-6,1.3C164.6,72.6,164.2,74.6,164.2,77.4  L164.2,77.4z"/>
<path class="st1" d="M197.6,87.9c-0.8,0.5-1.7,0.9-2.7,1.1c-1.1,0.2-2.2,0.3-3.3,0.3c-1.3,0-2.7-0.2-3.9-0.6  c-1.2-0.4-2.3-1.1-3.2-2.1c-1-1.1-1.8-2.3-2.2-3.7c-0.6-1.8-0.9-3.6-0.8-5.5c-0.1-1.9,0.3-3.8,0.9-5.6c0.5-1.4,1.4-2.6,2.4-3.7  c1-0.9,2.1-1.6,3.3-2c1.2-0.4,2.4-0.6,3.7-0.6c1.1,0,2.2,0.1,3.3,0.3c0.8,0.1,1.5,0.3,2.2,0.6l-0.9,3.8c-0.6-0.3-1.2-0.4-1.8-0.5  c-0.8-0.1-1.7-0.2-2.5-0.2c-1.7-0.1-3.3,0.7-4.4,1.9c-1.1,1.3-1.7,3.3-1.7,6c0,1.1,0.1,2.2,0.4,3.2c0.2,0.9,0.6,1.7,1.2,2.5  c0.5,0.7,1.2,1.2,2,1.6c0.9,0.4,1.8,0.6,2.8,0.6c0.8,0,1.7-0.1,2.5-0.3c0.6-0.2,1.2-0.4,1.8-0.8L197.6,87.9z"/>
<path class="st1" d="M200.9,65.9h4.5v22.9h-4.5V65.9z"/>
<path class="st1" d="M209.7,65.9h13.6v4h-9.1v5.3h8.3v4h-8.3v5.6h9.2v4h-13.7V65.9z"/>
<path class="st1" d="M243.1,69.9h-6.6v18.9H232V69.9h-6.7v-4h17.9L243.1,69.9z"/>
<path class="st1" d="M248.6,80.3l-7.5-14.4h5.4l4.2,8.6l0.5,2.4h0.2l0.5-2.5l4.1-8.5h4.8l-7.5,14.4v8.6h-4.5L248.6,80.3z"/>
</svg>